<?xml version="1.0" standalone="no"?>
<!DOCTYPE svg PUBLIC "-//W3C//DTD SVG 20010904//EN"
 "http://www.w3.org/TR/2001/REC-SVG-20010904/DTD/svg10.dtd">
<svg version="1.0" xmlns="http://www.w3.org/2000/svg"
 viewBox="0 0 640.000000 640.000000"
 preserveAspectRatio="xMidYMid meet">

<g transform="translate(0.000000,640.000000) scale(0.100000,-0.100000)"
fill="#0645AD" stroke="none">
<path d="M5384 6160 c-112 -23 -32 53 -2298 -2209 l-2149 -2146 -50 -105
c-269 -569 -577 -1252 -584 -1297 -5 -28 0 -37 28 -64 27 -25 39 -30 65 -26
38 6 256 103 895 397 l484 223 1828 1826 c2109 2106 2484 2487 2523 2567 25
50 26 61 22 166 -3 103 -6 118 -33 168 -33 60 -308 349 -399 420 -87 67 -231
101 -332 80z m171 -216 c42 -20 287 -257 353 -342 46 -59 61 -119 43 -175 -6
-18 -37 -65 -68 -103 -75 -90 -433 -454 -447 -454 -14 0 -576 562 -576 576 0
14 387 395 460 453 30 24 69 50 85 58 37 17 99 12 150 -13z m-4251 -4625 c135
-138 246 -254 246 -258 0 -14 -918 -437 -927 -427 -7 7 418 936 428 936 4 0
117 -113 253 -251z"/>
</g>
</svg>
