<?xml version="1.0" standalone="no"?>
<!DOCTYPE svg PUBLIC "-//W3C//DTD SVG 20010904//EN"
 "http://www.w3.org/TR/2001/REC-SVG-20010904/DTD/svg10.dtd">
<svg version="1.0" xmlns="http://www.w3.org/2000/svg"
 viewBox="0 0 512.000000 512.000000"
 preserveAspectRatio="xMidYMid meet">

<g transform="translate(0.000000,512.000000) scale(0.100000,-0.100000)"
fill="#000000" stroke="none">
<path d="M4273 4906 c-23 -7 -56 -23 -75 -34 -18 -12 -804 -792 -1747 -1735
l-1713 -1714 -254 -548 c-140 -301 -254 -559 -254 -572 0 -31 42 -73 74 -73
14 0 271 114 572 254 l546 253 1720 1719 c1452 1452 1723 1728 1746 1774 22
46 27 68 27 135 0 126 -23 166 -204 346 -117 117 -161 155 -206 175 -70 32
-169 41 -232 20z m162 -165 c53 -25 289 -264 310 -313 39 -95 17 -132 -215
-363 l-190 -190 -232 233 -233 232 190 191 c233 234 271 256 370 210z m-438
-743 c123 -123 223 -227 223 -233 0 -5 -638 -648 -1417 -1427 l-1418 -1418
-232 232 -233 233 1417 1417 c780 780 1422 1418 1428 1418 5 0 110 -100 232
-222z m-2765 -3169 c-11 -11 -745 -349 -749 -346 -1 2 63 145 143 318 80 173
159 343 175 379 l30 64 204 -204 c113 -112 201 -207 197 -211z"/>
</g>
</svg>
